<svg width="56" height="54" viewBox="0 0 56 54" fill="none" xmlns="http://www.w3.org/2000/svg">
<path d="M55.892 29.5868C55.3892 24.5294 53.1298 19.7616 49.5298 16.1614C46.4533 13.085 42.6877 11.108 38.7254 10.229V7.44991C40.3437 7.04729 41.5466 5.58241 41.5466 3.84124C41.5466 1.79065 39.8784 0.122437 37.8278 0.122437H29.9527C27.9021 0.122437 26.2339 1.79065 26.2339 3.84124C26.2339 5.5823 27.4368 7.04718 29.055 7.44991V10.2367C25.1049 11.1195 21.3518 13.0937 18.284 16.1615C17.6126 16.8329 16.9935 17.5372 16.4269 18.2691C16.3994 18.267 16.3719 18.265 16.3439 18.265H8.54965C7.94567 18.265 7.45588 18.7547 7.45588 19.3587C7.45588 19.9628 7.94567 20.4525 8.54965 20.4525H14.9386C14.1366 21.7951 13.49 23.2051 12.9978 24.6565H1.09377C0.489789 24.6565 0 25.1462 0 25.7503C0 26.3544 0.489789 26.844 1.09377 26.844H12.3797C12.0645 28.2278 11.8836 29.636 11.8369 31.0482H7.00011C6.39613 31.0482 5.90634 31.5378 5.90634 32.1419C5.90634 32.746 6.39613 33.2357 7.00011 33.2357H11.8717C11.9641 34.6515 12.1917 36.0598 12.5547 37.4398H5.46884C4.86486 37.4398 4.37507 37.9295 4.37507 38.5336C4.37507 39.1377 4.86486 39.6273 5.46884 39.6273H13.2527C14.3257 42.4658 16.0026 45.1261 18.284 47.4075C21.8875 51.011 26.6602 53.271 31.7229 53.7712C32.4454 53.8425 33.1685 53.8778 33.8906 53.8778C38.1587 53.8778 42.3725 52.6426 45.9481 50.3142C46.4543 49.9845 46.5974 49.307 46.2678 48.8008C45.9381 48.2946 45.2605 48.1514 44.7543 48.481C36.9277 53.5777 26.4458 52.4757 19.8308 45.8607C12.0692 38.0991 12.0692 25.4702 19.8308 17.7085C27.5922 9.94698 40.2212 9.94698 47.9829 17.7085C54.5892 24.3148 55.6971 34.7877 50.6174 42.6106C50.2883 43.1172 50.4324 43.7947 50.9389 44.1236C51.4458 44.4526 52.123 44.3085 52.4519 43.8019C55.166 39.6221 56.3877 34.5738 55.892 29.5868ZM28.4214 3.84135C28.4214 2.99697 29.1083 2.31008 29.9527 2.31008H37.8278C38.6722 2.31008 39.3591 2.99697 39.3591 3.84135C39.3591 4.68574 38.6722 5.37263 37.8278 5.37263H37.6316H30.1488H29.9527C29.1083 5.37263 28.4214 4.68563 28.4214 3.84135ZM31.2426 9.86068V7.56016H36.5378V9.85674C34.7795 9.64762 33.0006 9.64893 31.2426 9.86068Z" fill="#282630"/>
<path d="M48.7568 45.5399C48.4681 45.5399 48.187 45.6569 47.9837 45.8604C47.7791 46.0638 47.6631 46.346 47.6631 46.6337C47.6631 46.9213 47.7791 47.2035 47.9837 47.4069C48.187 47.6115 48.4682 47.7274 48.7568 47.7274C49.0445 47.7274 49.3256 47.6115 49.5301 47.4069C49.7336 47.2035 49.8506 46.9213 49.8506 46.6337C49.8506 46.346 49.7337 46.0638 49.5301 45.8604C49.3256 45.6569 49.0444 45.5399 48.7568 45.5399Z" fill="#282630"/>
<path d="M33.9069 14.8169C24.551 14.8169 16.9394 22.4284 16.9394 31.7844C16.9394 41.1404 24.551 48.7519 33.9069 48.7519C43.2628 48.7519 50.8744 41.1404 50.8744 31.7844C50.8744 22.4284 43.2628 14.8169 33.9069 14.8169ZM33.9069 46.5644C25.7571 46.5644 19.1269 39.9341 19.1269 31.7844C19.1269 23.6347 25.7571 17.0044 33.9069 17.0044C42.0567 17.0044 48.6869 23.6347 48.6869 31.7844C48.6869 39.9341 42.0567 46.5644 33.9069 46.5644Z" fill="#282630"/>
<path d="M40.8256 23.3188L35.4082 28.7361C34.9551 28.5121 34.4455 28.3855 33.9069 28.3855C33.3681 28.3855 32.8586 28.5121 32.4056 28.7361L29.981 26.3115C29.5538 25.8844 28.8614 25.8844 28.4341 26.3115C28.007 26.7386 28.007 27.4312 28.4341 27.8583L30.8587 30.2829C30.6345 30.7359 30.5081 31.2455 30.5081 31.7842C30.5081 33.6583 32.0327 35.183 33.9069 35.183C35.781 35.183 37.3056 33.6583 37.3056 31.7842C37.3056 31.2455 37.1791 30.7359 36.9551 30.2829L42.2135 25.0245L42.3724 24.8656C42.7995 24.4384 42.7995 23.7459 42.3724 23.3188C41.9453 22.8916 41.2529 22.8916 40.8256 23.3188ZM33.9069 32.9955C33.239 32.9955 32.6956 32.4522 32.6956 31.7843C32.6956 31.1164 33.239 30.5731 33.9069 30.5731C34.5747 30.5731 35.1181 31.1164 35.1181 31.7843C35.1181 32.4522 34.5747 32.9955 33.9069 32.9955Z" fill="#282630"/>
<path d="M45.6013 30.7039H44.5879C43.984 30.7039 43.4942 31.1935 43.4942 31.7976C43.4942 32.4017 43.984 32.8914 44.5879 32.8914H45.6013C46.2053 32.8914 46.6951 32.4017 46.6951 31.7976C46.6951 31.1935 46.2053 30.7039 45.6013 30.7039Z" fill="#282630"/>
<path d="M23.2257 30.6774H22.2124C21.6084 30.6774 21.1187 31.167 21.1187 31.7711C21.1187 32.3752 21.6084 32.8649 22.2124 32.8649H23.2257C23.8296 32.8649 24.3194 32.3752 24.3194 31.7711C24.3194 31.167 23.8296 30.6774 23.2257 30.6774Z" fill="#282630"/>
<path d="M33.9202 22.197C34.5242 22.197 35.014 21.7073 35.014 21.1032V20.09C35.014 19.4859 34.5242 18.9962 33.9202 18.9962C33.3163 18.9962 32.8265 19.4859 32.8265 20.09V21.1032C32.8265 21.7073 33.3163 22.197 33.9202 22.197Z" fill="#282630"/>
<path d="M33.8936 41.3717C33.2896 41.3717 32.7998 41.8614 32.7998 42.4655V43.4787C32.7998 44.0828 33.2896 44.5725 33.8936 44.5725C34.4975 44.5725 34.9873 44.0828 34.9873 43.4787V42.4655C34.9873 41.8614 34.4975 41.3717 33.8936 41.3717Z" fill="#282630"/>
<path d="M1.09375 37.4395C0.806094 37.4395 0.523906 37.5565 0.320469 37.7599C0.117031 37.9634 0 38.2455 0 38.5332C0 38.822 0.116922 39.103 0.320469 39.3065C0.524016 39.5099 0.806094 39.627 1.09375 39.627C1.38141 39.627 1.66359 39.5099 1.86692 39.3065C2.07036 39.103 2.1875 38.8209 2.1875 38.5332C2.1875 38.2455 2.07047 37.9634 1.86692 37.7599C1.66359 37.5565 1.38141 37.4395 1.09375 37.4395Z" fill="#282630"/>
</svg>
